{
	"scenes": [
		{
			"nodes": [ 0 ]
		}
	],
	"nodes": [
		{
			"mesh": 0,
			"rotation": [ -0.70699999999999996, 0, 0, 0.70699999999999996 ]
		}
	],
	"meshes": [
		{
			"primitives": [
				{
					"attributes": {
						"POSITION": 1,
						"NORMAL": 2,
						"COLOR_0": 3,
						"_BATCHID": 4
					},
					"indices": 0,
					"material": 0
				}
			]
		}
	],
	"buffers": [
		{
			"uri": "Cluster6.b3dm.bin",
			"byteLength": 1728
		}
	],
	"bufferViews": [
		{
			"buffer": 0,
			"byteOffset": 0,
			"byteLength": 192,
			"target": 34963
		},
		{
			"buffer": 0,
			"byteOffset": 192,
			"byteLength": 576,
			"target": 34962
		},
		{
			"buffer": 0,
			"byteOffset": 768,
			"byteLength": 576,
			"target": 34962
		},
		{
			"buffer": 0,
			"byteOffset": 1344,
			"byteLength": 192,
			"target": 34962
		},
		{
			"buffer": 0,
			"byteOffset": 1536,
			"byteLength": 192,
			"byteStride": 4,
			"target": 34962
		}
	],
	"accessors": [
		{
			"bufferView": 0,
			"byteOffset": 0,
			"componentType": 5125,
			"count": 48,
			"type": "SCALAR",
			"min": [ 0 ],
			"max": [ 47 ]
		},
		{
			"bufferView": 1,
			"byteOffset": 0,
			"componentType": 5126,
			"count": 48,
			"type": "VEC3",
			"min": [ -16.0984993, -8.73962879, 0 ],
			"max": [ 9.74650097, 10.2603712, 8 ]
		},
		{
			"bufferView": 2,
			"byteOffset": 0,
			"componentType": 5126,
			"count": 48,
			"type": "VEC3",
			"min": [ -1, -1, -0 ],
			"max": [ 1, 1, -0 ]
		},
		{
			"bufferView": 3,
			"byteOffset": 0,
			"componentType": 5121,
			"count": 48,
			"type": "VEC4",
			"normalized": true,
			"min": [ 170, 99, 105, 255 ],
			"max": [ 170, 99, 105, 255 ]
		},
		{
			"bufferView": 4,
			"byteOffset": 0,
			"componentType": 5123,
			"count": 48,
			"type": "SCALAR",
			"min": [ 0 ],
			"max": [ 3 ]
		}
	],
	"materials": [
		{
			"doubleSided": true
		}
	],
	"asset": {
		"version": "2.0"
	}
}
